<svg xmlns="http://www.w3.org/2000/svg" xmlns:xlink="http://www.w3.org/1999/xlink" width="418" height="418" viewBox="0 0 418 418">
  <defs>
    <filter id="sun" x="0" y="0" width="418" height="418" filterUnits="userSpaceOnUse">
      <feOffset dx="3" dy="3" input="SourceAlpha"/>
      <feGaussianBlur stdDeviation="3" result="blur"/>
      <feFlood flood-opacity="0.812"/>
      <feComposite operator="in" in2="blur"/>
      <feComposite in="SourceGraphic"/>
    </filter>
  </defs>
  <g transform="matrix(1, 0, 0, 1, 0, 0)" filter="url(#sun)">
    <path id="sun-2" data-name="sun" d="M130.46,65.02a7.28,7.28,0,1,1-12.358,7.7q-.127-.206-.242-.42L97.34,36.78a7.28,7.28,0,0,1,12.358-7.7q.127.205.243.42ZM72.3,117.86a7.28,7.28,0,0,1-7.28,12.6L29.46,109.94a7.28,7.28,0,0,1,7.28-12.6Zm-24,74.8a7.3,7.3,0,0,1,0,14.6H7.3a7.3,7.3,0,0,1,0-14.6h41Zm16.68,76.8a7.28,7.28,0,0,1,7.7,12.358q-.206.127-.42.242L36.78,302.62a7.28,7.28,0,0,1-7.7-12.358q.205-.127.42-.243Zm52.88,58.2a7.28,7.28,0,0,1,12.6,7.28L109.94,370.5A7.28,7.28,0,1,1,97.1,363.64q.114-.215.243-.42Zm74.8,24a7.3,7.3,0,0,1,14.6,0V392.7a7.3,7.3,0,0,1-14.6,0Zm76.8-16.68a7.28,7.28,0,0,1,12.6-7.28l20.52,35.56a7.28,7.28,0,1,1-12.358,7.7q-.127-.205-.243-.42Zm58.2-52.88a7.28,7.28,0,0,1,6.86-12.842q.215.114.42.243l35.56,20.52a7.28,7.28,0,0,1-6.86,12.842q-.215-.114-.42-.243Zm24-74.8a7.3,7.3,0,0,1,0-14.6H392.7a7.3,7.3,0,0,1,0,14.6H351.66Zm-16.68-76.8a7.28,7.28,0,1,1-7.7-12.358q.205-.127.42-.243l35.56-20.52a7.28,7.28,0,0,1,7.28,12.6ZM282.1,72.3a7.28,7.28,0,0,1-12.842-6.86q.114-.214.243-.42l20.52-35.56a7.28,7.28,0,0,1,12.842,6.86q-.114.215-.243.42Zm-74.8-24a7.3,7.3,0,0,1-14.6,0h0V7.3a7.3,7.3,0,0,1,14.6,0Zm-7.32,51.68a100,100,0,1,1-100,100A100,100,0,0,1,199.98,99.98Z" transform="translate(6 6)" fill="#ffed00"/>
  </g>
</svg>
